<svg width="166" height="58" viewBox="0 0 166 58" fill="none" xmlns="http://www.w3.org/2000/svg">
<circle cx="18" cy="29" r="13.5" stroke="#F0694B" stroke-width="9"/>
<path d="M44.7993 43L56.8282 30.8112C57.6542 29.9053 58.3602 29.1194 58.9463 28.4533C59.5591 27.7606 60.0253 27.0946 60.345 26.4552C60.6647 25.8158 60.8246 25.1364 60.8246 24.417C60.8246 24.0707 60.7713 23.7377 60.6647 23.418C60.5582 23.0982 60.385 22.8185 60.1452 22.5787C59.9054 22.3389 59.599 22.1524 59.226 22.0192C58.8797 21.8594 58.4534 21.7795 57.9472 21.7795C57.2812 21.7795 56.695 21.9659 56.1888 22.3389C55.6826 22.6853 55.283 23.1648 54.9899 23.7776C54.7235 24.3904 54.5903 25.0698 54.5903 25.8158H45.9982C45.9982 23.8176 46.4511 21.9526 47.3569 20.2209C48.2628 18.4891 49.6215 17.0904 51.4332 16.0247C53.2715 14.9324 55.5494 14.3862 58.2669 14.3862C60.1052 14.3862 61.7437 14.6527 63.1824 15.1855C64.6477 15.6917 65.8733 16.3977 66.859 17.3036C67.8714 18.1828 68.6308 19.1818 69.137 20.3008C69.6698 21.4198 69.9362 22.5787 69.9362 23.7776C69.9362 25.3229 69.5499 26.6949 68.7773 27.8938C68.0047 29.0661 66.9789 30.1451 65.7001 31.1309L60.6647 35.0073H70.9353V43H44.7993ZM72.733 38.4042L89.4377 15.0256H96.6311V43H87.4396V35.9664L88.6385 35.5269V26.1754L83.723 32.4097H94.633L95.3123 31.011H101.027V38.4042H72.733ZM111.88 22.4189V15.0256H124.389V22.4189H111.88ZM111.88 33.209V26.4152H123.989V33.209H111.88ZM105.806 15.0256H114.198V43H105.806V15.0256ZM129.183 15.0256H138.175V43H129.183V15.0256ZM140.981 22.8185V15.0256H165.759V22.8185H157.766V43H148.974V22.8185H140.981Z" fill="white"/>
</svg>
